# xmcd
#
# Track frame offsets:
#	150
#	9939
#	19226
#	29791
#	41553
#	53508
#	63166
#	72658
#	82282
#	94698
#	105157
#	113109
#
# Disc length: 1678 seconds
#
# Revision: 0
# Processed by: cddbd v1.5.2PL0 Copyright (c) Steve Scherf et al.
# Submitted via: dBpowerAMP V4.0
#
DISCID=97068c0c
DTITLE=Various Artist - The Rock 'n' Roll Years
DYEAR=1900
DGENRE=Oldies
TTITLE0=Rock Around the Clock/Bill Haley and the Comets
TTITLE1=Good Golly Miss Molly/Little Richard
TTITLE2=Ain't that a Shame/Fats Domino
TTITLE3=Be-Bop-A-Lulu/Gene Vincent
TTITLE4=Honey Don't/Carl Perkins
TTITLE5=Louie, Louie/Richard Berry and The Pharaohs
TTITLE6=Devil Doll/Roy Orbison
TTITLE7=Whole Lotta Shakin' Goin' On/Bill Haley and the Comets
TTITLE8=Great Balls of Fire/Jerry Lee Lewis
TTITLE9=Tutti Fruitti/Little Richard
TTITLE10=Yakety Yak/The Coasters
TTITLE11=Just Like Eddie/Heinz
EXTD=rock n rol 50-60-70-s
EXTT0=
EXTT1=
EXTT2=
EXTT3=
EXTT4=
EXTT5=
EXTT6=
EXTT7=
EXTT8=
EXTT9=
EXTT10=
EXTT11=
PLAYORDER=
